<?xml version="1.0" encoding="utf-8"?>
<!-- Generator: Adobe Illustrator 24.1.2, SVG Export Plug-In . SVG Version: 6.00 Build 0)  -->
<svg version="1.1" id="Layer_1" xmlns="http://www.w3.org/2000/svg" xmlns:xlink="http://www.w3.org/1999/xlink" x="0px" y="0px"
	 viewBox="0 0 80 80" style="enable-background:new 0 0 80 80;" xml:space="preserve">
<style type="text/css">
	.st0{fill:#1A73E8;}
	.st1{opacity:0.2;fill:#FFFFFF;enable-background:new    ;}
	.st2{fill:#1A237E;fill-opacity:0.2;}
	.st3{fill:#185ABC;}
	.st4{fill:#F1F3F4;}
	.st5{fill:#FFFFFF;}
	.st6{fill:#BDC1C6;}
</style>
<g>
	<path class="st0" d="M79.77,42.15c-1.3,21.94-20.14,38.67-42.08,37.37C15.76,78.21-0.97,59.37,0.33,37.43
		C1.58,16.39,19.02-0.03,40.1,0h33.32c3.52,0.01,6.36,2.88,6.35,6.4c0,0.01,0,0.02,0,0.03V42.15z"/>
	<path class="st1" d="M73.42,0.12H39.98c-21.91,0-39.67,17.76-39.67,39.67l0,0c0.2-21.76,17.9-39.3,39.67-39.29h33.44
		c3.52,0.01,6.36,2.88,6.35,6.4c0,0,0,0,0,0V6.42C79.73,2.94,76.9,0.14,73.42,0.12z"/>
	<g>
		<path class="st2" d="M79.77,42.15v-1.02c-0.5,21.96-18.71,39.36-40.67,38.86C17.14,79.49-0.26,61.28,0.24,39.32l0,0
			c0,0,0,0.37,0,0.45C0.33,61.74,18.22,79.48,40.2,79.39c21.14-0.09,38.52-16.7,39.57-37.81"/>
	</g>
	<path class="st3" d="M56.22,47.57c0.01,3.49-2.81,6.33-6.31,6.34c-0.15,0-0.31,0-0.46-0.02H26.89c-3.48,0.25-6.51-2.38-6.75-5.86
		c-0.01-0.15-0.02-0.29-0.02-0.44v2.23c-0.04,3.7,2.92,6.73,6.62,6.77c0.05,0,0.1,0,0.15,0h22.58c3.7,0.03,6.72-2.95,6.74-6.64
		c0-0.04,0-0.08,0-0.12V47.57z"/>
	<path class="st3" d="M67.1,49.38c-0.04,0.74-0.68,1.3-1.42,1.26c-0.31-0.02-0.61-0.15-0.84-0.36l-8.63-8.58v2.26l8.58,8.58
		c0.47,0.53,1.29,0.59,1.82,0.12c0.29-0.25,0.45-0.62,0.44-1.01L67.1,49.38z"/>
	<g>
		<path class="st4" d="M64.85,27.69l-8.63,8.48v5.43l8.58,8.58c0.51,0.52,1.34,0.53,1.86,0.03c0.25-0.24,0.39-0.57,0.4-0.92v-20.7
			c-0.07-0.74-0.72-1.28-1.46-1.21C65.32,27.4,65.06,27.51,64.85,27.69z"/>
		<path class="st5" d="M49.48,23.63H26.89c-3.74,0-6.77,3.03-6.77,6.77c0,0,0,0,0,0v17.18c-0.01,3.72,2.99,6.75,6.72,6.77
			c0.02,0,0.03,0,0.05,0h22.58c3.73-0.01,6.74-3.04,6.74-6.77V30.39c0.01-3.72-2.99-6.75-6.72-6.77
			C49.49,23.63,49.48,23.63,49.48,23.63z"/>
		<g>
			<polygon class="st6" points="56.27,42.24 56.27,41.7 58.08,43.51 58.08,34.46 56.27,36.27 			"/>
		</g>
	</g>
</g>
</svg>
