<svg id="Layer_1" data-name="Layer 1" xmlns="http://www.w3.org/2000/svg" viewBox="0 0 40 40"><defs><style>.cls-1{fill:#1a73e8;}.cls-2{fill:#fff;}.cls-3{fill:#3362b4;}</style></defs><path class="cls-1" d="M20,1,4.8,5.34v12A26.7,26.7,0,0,0,20,39,26.7,26.7,0,0,0,35.2,17.29V5.34Z"/><path class="cls-2" d="M26.8,14.3H24.61V11a4.89,4.89,0,0,0-9.22,0V14.3H13.2a1.07,1.07,0,0,0-1.07,1.07V26.8a1.07,1.07,0,0,0,1.07,1.07H26.8a1.07,1.07,0,0,0,1.07-1.07V15.37A1.07,1.07,0,0,0,26.8,14.3Zm-9.62-2.63A3.1,3.1,0,0,1,20,9.41a3.1,3.1,0,0,1,2.82,2.26V14.3H17.18Z"/><circle class="cls-3" cx="20" cy="20.27" r="1.63"/><rect class="cls-3" x="19.46" y="21.36" width="1.09" height="2.71"/></svg>