<svg id="Layer_1" data-name="Layer 1" xmlns="http://www.w3.org/2000/svg" viewBox="0 0 40 40"><defs><style>.cls-1{fill:#1a73e8;}</style></defs><path class="cls-1" d="M14.64,7.5a6.31,6.31,0,1,1-6.3,6.31,6.3,6.3,0,0,1,6.3-6.31m0,10.36a4.06,4.06,0,1,0-4.05-4,4.05,4.05,0,0,0,4.05,4"/><path class="cls-1" d="M25.36,23.27c-.61,0-1.19,0-1.74.05a12.64,12.64,0,0,1,2.27,1.33,8.36,8.36,0,0,1,2.9,3.45l.1.27V32.5H38V28.67S35.94,23.27,25.36,23.27Z"/><path class="cls-1" d="M25.36,7.5A6.3,6.3,0,0,0,21.2,9.07a8.09,8.09,0,0,1,0,9.47,6.3,6.3,0,1,0,4.16-11Z"/><path class="cls-1" d="M14.64,25.35c7.23,0,9.62,2.68,10.23,3.61v1.16H4.41V29c.58-.86,3-3.6,10.23-3.6m0-2.08C4.06,23.27,2,28.67,2,28.67V32.5H27.26V28.67s-2-5.4-12.62-5.4Z"/></svg>